<svg width="17" height="18" viewBox="0 0 17 18" fill="none" xmlns="http://www.w3.org/2000/svg">
<path d="M15.1075 7.28852L15.0973 7.27829C15.0964 7.27772 15.0958 7.27695 15.0954 7.27607L8.69592 0.876462L2.29654 7.2759C2.2958 7.27664 2.29465 7.27812 2.29465 7.27812L2.28409 7.28835C1.30553 8.2724 0.683981 9.55531 0.518242 10.9332C0.352502 12.311 0.652086 13.7048 1.36937 14.8928C2.08665 16.0809 3.18046 16.9951 4.47693 17.4901C5.7734 17.985 7.19812 18.0325 8.52461 17.6247C8.63623 17.5906 8.75554 17.5906 8.86717 17.6247C10.1936 18.0323 11.6182 17.9849 12.9146 17.4898C14.211 16.9948 15.3047 16.0806 16.0219 14.8927C16.7391 13.7047 17.0388 12.311 16.8731 10.9333C16.7074 9.55548 16.0859 8.27257 15.1075 7.28852ZM4.57208 11.5085C4.54092 11.5397 4.51622 11.5767 4.49937 11.6174C4.48251 11.658 4.47384 11.7016 4.47384 11.7457C4.48523 12.8752 4.80443 13.9801 5.39709 14.9417C5.41055 14.9635 5.41677 14.989 5.41487 15.0145C5.41296 15.0401 5.40302 15.0644 5.38646 15.084C5.36991 15.1035 5.34759 15.1173 5.3227 15.1235C5.29781 15.1296 5.27163 15.1277 5.24789 15.118C4.80235 14.9306 4.39759 14.6582 4.05626 14.316C3.35676 13.6164 2.96351 12.6677 2.96288 11.6783C2.96224 10.689 3.35427 9.73983 4.05288 9.03934L8.69592 4.39674L13.3387 9.03934C14.0374 9.73975 14.4296 10.6889 14.4289 11.6783C14.4284 12.6677 14.035 13.6164 13.3355 14.316C12.9942 14.6582 12.5894 14.9306 12.144 15.118C12.1202 15.1277 12.094 15.1296 12.0691 15.1235C12.0442 15.1173 12.0219 15.1035 12.0053 15.084C11.9888 15.0644 11.9788 15.0401 11.9769 15.0145C11.975 14.9889 11.9812 14.9634 11.9947 14.9416C12.5874 13.9801 12.9068 12.8752 12.9184 11.7457C12.9184 11.7016 12.9096 11.658 12.8927 11.6173C12.8757 11.5765 12.851 11.5396 12.8197 11.5085L10.6236 9.1791C10.6017 9.16084 10.5742 9.15084 10.5457 9.15084C10.5173 9.15084 10.4897 9.16084 10.4679 9.1791C10.446 9.19728 10.4313 9.22264 10.4262 9.25066C10.421 9.27867 10.4259 9.3075 10.44 9.33229C11.2929 10.8757 10.5594 13.0927 9.33635 14.316L9.3299 14.3224C9.16109 14.4894 8.93319 14.5831 8.69575 14.583C8.45828 14.5829 8.23044 14.4891 8.06175 14.322L8.05581 14.316C6.83227 13.0927 6.09922 10.876 6.95227 9.33262C6.9663 9.30784 6.97119 9.279 6.96608 9.25099C6.96098 9.22297 6.94622 9.19761 6.92436 9.17943C6.9025 9.16117 6.87495 9.15117 6.84648 9.15117C6.81801 9.15117 6.79045 9.16117 6.76859 9.17943L4.57208 11.5085Z" fill="#F53838"/>
</svg>
